<svg width="512" height="512" viewBox="0 0 512 512" fill="none" xmlns="http://www.w3.org/2000/svg">
<path d="M512 256C512 397.385 397.385 512 256 512C114.615 512 0 397.385 0 256C0 114.615 114.615 0 256 0C397.385 0 512 114.615 512 256Z" fill="#E9FF61"/>
<path fill-rule="evenodd" clip-rule="evenodd" d="M258.997 412.694C345.592 412.694 415.791 342.495 415.791 255.9C415.791 169.305 345.592 99.106 258.997 99.106C172.402 99.106 102.203 169.305 102.203 255.9C102.203 342.495 172.402 412.694 258.997 412.694ZM258.997 431.87C356.183 431.87 434.967 353.086 434.967 255.9C434.967 158.714 356.183 79.9298 258.997 79.9298C161.812 79.9298 83.027 158.714 83.027 255.9C83.027 353.086 161.812 431.87 258.997 431.87Z" fill="black"/>
<path d="M222.202 445.218L250.92 283.73H178.9L295.792 66.5793L267.075 219.049H339.094L222.202 445.218Z" fill="black"/>
<path fill-rule="evenodd" clip-rule="evenodd" d="M243.246 456.095L198.88 441.071L222.647 307.418H139.247L274.934 55.3514L319.071 70.9639L295.641 195.361H378.002L243.246 456.095ZM267.075 219.049L295.792 66.5793L178.9 283.73H250.92L222.202 445.218L339.094 219.049H267.075Z" fill="#E9FF61"/>
</svg>
